<?xml version="1.0" encoding="utf-8"?>
<!-- Generator: Adobe Illustrator 22.1.0, SVG Export Plug-In . SVG Version: 6.00 Build 0)  -->
<svg version="1.1" id="linkedin-icon_1_" xmlns="http://www.w3.org/2000/svg" xmlns:xlink="http://www.w3.org/1999/xlink" x="0px"
	 y="0px" viewBox="0 0 21 21" style="enable-background:new 0 0 21 21;" xml:space="preserve">
<style type="text/css">
	.st0{fill:#000000;}
</style>
<path id="linkedin-icon" class="st0" d="M4.8,7.2v13.5H0.3V7.2H4.8z M5.1,3.1c0,0.7-0.2,1.2-0.7,1.7S3.3,5.4,2.5,5.4h0
	c-0.7,0-1.3-0.2-1.8-0.7S0,3.7,0,3.1c0-0.7,0.2-1.2,0.7-1.7s1.1-0.7,1.8-0.7S3.9,1,4.4,1.4S5,2.4,5.1,3.1z M21,13v7.7h-4.5v-7.2
	c0-1-0.2-1.7-0.6-2.2c-0.4-0.5-0.9-0.8-1.7-0.8c-0.6,0-1.1,0.2-1.4,0.5c-0.4,0.3-0.7,0.7-0.9,1.2c-0.1,0.3-0.2,0.6-0.2,1.1v7.5H7.3
	c0-3.6,0-6.6,0-8.8s0-3.6,0-4l0-0.7h4.5v2h0c0.2-0.3,0.4-0.5,0.6-0.8s0.4-0.5,0.8-0.7s0.7-0.5,1.2-0.6s1-0.2,1.6-0.2
	c1.6,0,2.8,0.5,3.8,1.5C20.5,9.5,21,11,21,13z"/>
</svg>
